<svg width="48" height="48" viewBox="0 0 48 48" fill="none" xmlns="http://www.w3.org/2000/svg">
<path d="M32.0001 12L15.1721 29.172C14.4218 29.9223 14.0002 30.9399 14.0002 32.001C14.0002 33.0621 14.4218 34.0797 15.1721 34.83C15.9224 35.5803 16.94 36.0018 18.0011 36.0018C19.0621 36.0018 20.0798 35.5803 20.8301 34.83L37.6581 17.658C39.1584 16.1577 40.0013 14.1228 40.0013 12.001C40.0013 9.87921 39.1584 7.84433 37.6581 6.344C36.1577 4.84367 34.1228 4.00079 32.0011 4.00079C29.8793 4.00079 27.8444 4.84367 26.3441 6.344L9.58606 23.446C8.45685 24.557 7.55878 25.8805 6.94365 27.3403C6.32852 28.8 6.0085 30.3672 6.00205 31.9512C5.9956 33.5353 6.30285 35.105 6.90607 36.5697C7.50929 38.0345 8.39655 39.3653 9.51667 40.4854C10.6368 41.6055 11.9676 42.4928 13.4323 43.096C14.8971 43.6992 16.4667 44.0065 18.0508 44C19.6349 43.9935 21.202 43.6735 22.6618 43.0584C24.1216 42.4433 25.4451 41.5452 26.5561 40.416L43.3141 23.314" stroke="#212121" stroke-width="3" stroke-linecap="round" stroke-linejoin="round"/>
</svg>
