<svg width="435" height="66" viewBox="0 0 435 66" fill="none" xmlns="http://www.w3.org/2000/svg">
<g clip-path="url(#clip0_342_3338)">
<path d="M203.185 0H7.81482C3.49881 0 0 3.63769 0 8.125V56.875C0 61.3623 3.49881 65 7.81482 65H203.185C207.501 65 211 61.3623 211 56.875V8.125C211 3.63769 207.501 0 203.185 0Z" fill="black"/>
<path d="M203.185 1.3C204.926 1.3 206.596 2.01906 207.827 3.299C209.058 4.57893 209.75 6.3149 209.75 8.125V56.875C209.75 58.6851 209.058 60.4211 207.827 61.701C206.596 62.9809 204.926 63.7 203.185 63.7H7.81482C6.07382 63.7 4.40412 62.9809 3.17305 61.701C1.94198 60.4211 1.25037 58.6851 1.25037 56.875V8.125C1.25037 6.3149 1.94198 4.57893 3.17305 3.299C4.40412 2.01906 6.07382 1.3 7.81482 1.3H203.185ZM203.185 0H7.81482C5.7422 0 3.75447 0.856024 2.28891 2.37976C0.823344 3.90349 0 5.97012 0 8.125V56.875C0 59.0299 0.823344 61.0965 2.28891 62.6202C3.75447 64.144 5.7422 65 7.81482 65H203.185C205.258 65 207.246 64.144 208.711 62.6202C210.177 61.0965 211 59.0299 211 56.875V8.125C211 5.97012 210.177 3.90349 208.711 2.37976C207.246 0.856024 205.258 0 203.185 0Z" fill="#A6A6A6"/>
<path d="M74.1154 16.64C74.1411 17.2359 74.0505 17.8311 73.849 18.3896C73.6475 18.9482 73.3394 19.4585 72.9432 19.89C72.4992 20.3666 71.9634 20.7403 71.3708 20.9868C70.7783 21.2332 70.1424 21.3467 69.5047 21.32C68.8633 21.3348 68.2259 21.2127 67.6317 20.9611C67.0376 20.7096 66.4994 20.3339 66.0505 19.8575C65.1398 18.8889 64.6299 17.5882 64.6299 16.2337C64.6299 14.8792 65.1398 13.5785 66.0505 12.61C66.7468 11.9026 67.6287 11.4249 68.5853 11.237C69.5419 11.0491 70.5306 11.1593 71.4271 11.5537C71.9907 11.7946 72.4934 12.1671 72.8963 12.6425L72.0679 13.5037C71.7576 13.115 71.3643 12.8068 70.9193 12.6037C70.4744 12.4006 69.99 12.3082 69.5047 12.3337C68.892 12.3381 68.2898 12.4985 67.7505 12.8008C67.2112 13.1031 66.7514 13.5381 66.4111 14.0678C66.0709 14.5975 65.8606 15.2058 65.7987 15.8396C65.7368 16.4733 65.8251 17.1131 66.056 17.7031C66.2868 18.2932 66.6532 18.8154 67.123 19.2243C67.5928 19.6331 68.1518 19.9161 68.7511 20.0485C69.3503 20.1809 69.9717 20.1586 70.5608 19.9837C71.1499 19.8087 71.6888 19.4865 72.1305 19.045C72.6079 18.5008 72.8847 17.7985 72.9119 17.0625H69.5047V15.8925H74.0529C74.0885 16.1401 74.1094 16.3897 74.1154 16.64Z" fill="white" stroke="white" stroke-width="0.411304" stroke-miterlimit="10"/>
<path d="M81.2731 12.5775H77.0531V15.665H80.898V16.835H77.0531V19.9225H81.2731V21.125H75.834V11.375H81.2731V12.5775Z" fill="white" stroke="white" stroke-width="0.411304" stroke-miterlimit="10"/>
<path d="M86.4015 21.125H85.198V12.5775H82.5723V11.375H89.0898V12.5775H86.4015V21.125Z" fill="white" stroke="white" stroke-width="0.411304" stroke-miterlimit="10"/>
<path d="M93.6846 21.125V11.375H94.888V21.125H93.6846Z" fill="white" stroke="white" stroke-width="0.411304" stroke-miterlimit="10"/>
<path d="M100.233 21.125H99.0291V12.5775H96.4033V11.375H102.843V12.5775H100.233V21.125Z" fill="white" stroke="white" stroke-width="0.411304" stroke-miterlimit="10"/>
<path d="M115.049 19.8575C114.598 20.3272 114.062 20.6998 113.472 20.9541C112.882 21.2083 112.25 21.3392 111.611 21.3392C110.972 21.3392 110.34 21.2083 109.75 20.9541C109.16 20.6998 108.624 20.3272 108.172 19.8575C107.289 18.8809 106.797 17.5907 106.797 16.25C106.797 14.9093 107.289 13.619 108.172 12.6425C108.614 12.1595 109.148 11.7784 109.741 11.5236C110.333 11.2689 110.97 11.1463 111.611 11.1637C112.251 11.1532 112.886 11.279 113.477 11.5333C114.069 11.7876 114.604 12.1651 115.049 12.6425C115.499 13.1178 115.852 13.6819 116.088 14.3015C116.325 14.9211 116.439 15.5836 116.425 16.25C116.445 16.9172 116.334 17.5816 116.097 18.2022C115.861 18.8227 115.504 19.3861 115.049 19.8575ZM109.063 19.045C109.396 19.3958 109.793 19.6743 110.23 19.8644C110.668 20.0546 111.137 20.1525 111.611 20.1525C112.085 20.1525 112.554 20.0546 112.992 19.8644C113.429 19.6743 113.826 19.3958 114.159 19.045C114.833 18.2831 115.207 17.2854 115.207 16.25C115.207 15.2145 114.833 14.2169 114.159 13.455C113.826 13.1042 113.429 12.8256 112.992 12.6355C112.554 12.4454 112.085 12.3475 111.611 12.3475C111.137 12.3475 110.668 12.4454 110.23 12.6355C109.793 12.8256 109.396 13.1042 109.063 13.455C108.389 14.2169 108.015 15.2145 108.015 16.25C108.015 17.2854 108.389 18.2831 109.063 19.045Z" fill="white" stroke="white" stroke-width="0.411304" stroke-miterlimit="10"/>
<path d="M118.13 21.125V11.375H119.583L124.147 18.9637V17.0787V11.375H125.351V21.125H124.1L119.333 13.1788V15.0475V21.125H118.13Z" fill="white" stroke="white" stroke-width="0.411304" stroke-miterlimit="10"/>
<path d="M106.5 35.3437C105.183 35.347 103.897 35.7561 102.804 36.5194C101.711 37.2828 100.86 38.366 100.358 39.6321C99.8574 40.8983 99.7287 42.2905 99.9886 43.6327C100.249 44.9749 100.885 46.2068 101.819 47.1727C102.752 48.1385 103.94 48.7949 105.232 49.0589C106.524 49.3228 107.863 49.1825 109.078 48.6556C110.294 48.1286 111.332 47.2388 112.061 46.0987C112.79 44.9585 113.177 43.6191 113.174 42.25C113.187 41.3366 113.023 40.43 112.691 39.5839C112.36 38.7379 111.868 37.9698 111.246 37.3254C110.623 36.6811 109.882 36.1735 109.067 35.8331C108.251 35.4926 107.379 35.3262 106.5 35.3437V35.3437ZM106.5 46.4425C105.693 46.5012 104.888 46.3061 104.189 45.8825C103.489 45.4589 102.929 44.8265 102.58 44.0675C102.232 43.3084 102.11 42.4578 102.233 41.6262C102.355 40.7947 102.715 40.0206 103.266 39.4047C103.817 38.7887 104.534 38.3594 105.323 38.1725C106.112 37.9856 106.937 38.0498 107.69 38.3566C108.443 38.6635 109.09 39.1989 109.547 39.8933C110.004 40.5876 110.249 41.4088 110.251 42.25C110.276 42.783 110.199 43.3159 110.023 43.8172C109.847 44.3185 109.576 44.778 109.226 45.1688C108.877 45.5595 108.455 45.8735 107.987 46.0923C107.519 46.311 107.013 46.4301 106.5 46.4425ZM91.9334 35.3437C90.6165 35.347 89.3301 35.7561 88.2369 36.5194C87.1437 37.2828 86.2928 38.366 85.7917 39.6321C85.2906 40.8983 85.1619 42.2905 85.4218 43.6327C85.6818 44.9749 86.3187 46.2068 87.252 47.1727C88.1854 48.1385 89.3732 48.7949 90.6654 49.0589C91.9576 49.3228 93.296 49.1825 94.5115 48.6556C95.7269 48.1286 96.7648 47.2388 97.4938 46.0987C98.2229 44.9585 98.6103 43.6191 98.6072 42.25C98.62 41.3366 98.4558 40.43 98.1246 39.5839C97.7933 38.7379 97.3016 37.9698 96.6789 37.3254C96.0562 36.6811 95.3152 36.1735 94.4999 35.8331C93.6846 35.4926 92.8118 35.3262 91.9334 35.3437V35.3437ZM91.9334 46.4425C91.1262 46.5012 90.3208 46.3061 89.6217 45.8825C88.9226 45.4589 88.3623 44.8265 88.0135 44.0675C87.6647 43.3084 87.5436 42.4578 87.666 41.6262C87.7883 40.7947 88.1485 40.0206 88.6996 39.4047C89.2507 38.7887 89.9672 38.3594 90.7561 38.1725C91.545 37.9856 92.3697 38.0498 93.1231 38.3566C93.8764 38.6635 94.5236 39.1989 94.9804 39.8933C95.4372 40.5876 95.6825 41.4088 95.6845 42.25C95.7097 42.783 95.6319 43.3159 95.4559 43.8172C95.2798 44.3185 95.009 44.778 94.6594 45.1688C94.3098 45.5595 93.8885 45.8735 93.4203 46.0923C92.9521 46.311 92.4465 46.4301 91.9334 46.4425ZM74.6158 37.4725V40.3975H81.3678C81.2619 41.7752 80.7111 43.0752 79.8048 44.0862C79.1275 44.8037 78.3129 45.3653 77.4136 45.7348C76.5144 46.1043 75.5506 46.2735 74.5845 46.2312C72.5948 46.2312 70.6866 45.4095 69.2796 43.9467C67.8727 42.4839 67.0823 40.4999 67.0823 38.4312C67.0823 36.3626 67.8727 34.3786 69.2796 32.9158C70.6866 31.453 72.5948 30.6312 74.5845 30.6312C76.492 30.6018 78.3339 31.3549 79.711 32.7275L81.696 30.6637C80.7644 29.7058 79.6584 28.9508 78.4426 28.443C77.2268 27.9351 75.9258 27.6847 74.6158 27.7062C73.2263 27.65 71.8402 27.886 70.5405 28.4001C69.2409 28.9141 68.0544 29.6957 67.0522 30.6979C66.05 31.7001 65.2527 32.9023 64.7081 34.2326C64.1635 35.5628 63.8828 36.9936 63.8828 38.4394C63.8828 39.8851 64.1635 41.3159 64.7081 42.6462C65.2527 43.9764 66.05 45.1786 67.0522 46.1809C68.0544 47.1831 69.2409 47.9646 70.5405 48.4787C71.8402 48.9927 73.2263 49.2287 74.6158 49.1725C75.9528 49.228 77.2859 48.9889 78.5277 48.4708C79.7695 47.9526 80.8918 47.1673 81.821 46.1662C83.4623 44.2917 84.3369 41.8262 84.2592 39.2925C84.2648 38.6827 84.2178 38.0736 84.1186 37.4725H74.6158ZM145.434 39.7475C145.026 38.5007 144.264 37.412 143.248 36.6256C142.232 35.8392 141.01 35.3922 139.744 35.3437C138.889 35.342 138.043 35.5226 137.258 35.8744C136.473 36.2261 135.766 36.7416 135.18 37.3889C134.594 38.0361 134.142 38.8015 133.851 39.6376C133.561 40.4737 133.439 41.3629 133.493 42.25C133.479 43.7334 133.928 45.1815 134.771 46.3779C135.615 47.5744 136.808 48.4551 138.172 48.8884C139.537 49.3217 141 49.2844 142.342 48.782C143.685 48.2797 144.835 47.3393 145.621 46.1012L143.355 44.4762C143.017 45.0617 142.538 45.5452 141.965 45.8787C141.392 46.2122 140.745 46.3841 140.088 46.3775C139.411 46.4066 138.741 46.2219 138.166 45.8478C137.592 45.4737 137.139 44.9276 136.869 44.2812L145.762 40.4625L145.434 39.7475ZM136.368 42.055C136.337 41.5502 136.402 41.044 136.561 40.5659C136.72 40.0878 136.969 39.6474 137.294 39.2706C137.618 38.8938 138.012 38.5881 138.451 38.3714C138.891 38.1548 139.368 38.0315 139.854 38.0087C140.357 37.9768 140.859 38.1001 141.295 38.3631C141.732 38.6262 142.084 39.0173 142.308 39.4875L136.368 42.055ZM129.148 48.75H132.07V28.4375H129.148V48.75ZM124.365 36.8875H124.255C123.819 36.3705 123.28 35.9577 122.676 35.6772C122.071 35.3968 121.416 35.2553 120.754 35.2625C119.046 35.3486 117.436 36.1147 116.256 37.4019C115.077 38.6892 114.419 40.399 114.419 42.1769C114.419 43.9548 115.077 45.6645 116.256 46.9518C117.436 48.2391 119.046 49.0051 120.754 49.0912C121.417 49.1051 122.074 48.9666 122.68 48.6857C123.285 48.4048 123.823 47.9884 124.255 47.4662H124.365V48.4575C124.365 51.1062 123.005 52.52 120.817 52.52C120.086 52.5033 119.376 52.2611 118.778 51.8242C118.18 51.3874 117.72 50.7755 117.457 50.0662L114.925 51.155C115.393 52.3774 116.207 53.4233 117.259 54.1545C118.311 54.8857 119.552 55.2677 120.817 55.25C124.24 55.25 127.069 53.1537 127.069 48.0512V35.75H124.365V36.8875ZM121.004 46.4425C119.98 46.3761 119.019 45.9064 118.317 45.1289C117.614 44.3515 117.223 43.3249 117.223 42.2581C117.223 41.1914 117.614 40.1647 118.317 39.3873C119.019 38.6099 119.98 38.1401 121.004 38.0737C121.505 38.0962 121.996 38.2231 122.448 38.4469C122.901 38.6707 123.305 38.9868 123.638 39.3765C123.97 39.7661 124.224 40.2213 124.384 40.715C124.544 41.2086 124.606 41.7306 124.568 42.25C124.611 42.7711 124.551 43.2958 124.393 43.7924C124.235 44.2889 123.982 44.747 123.649 45.1389C123.316 45.5308 122.91 45.8484 122.455 46.0725C122.001 46.2965 121.507 46.4224 121.004 46.4425V46.4425ZM159.125 28.4375H152.123V48.75H155.046V41.0475H159.125C159.958 41.1097 160.795 40.9928 161.582 40.7042C162.37 40.4155 163.092 39.9612 163.703 39.3697C164.314 38.7781 164.802 38.062 165.135 37.2659C165.469 36.4698 165.641 35.6108 165.641 34.7425C165.641 33.8742 165.469 33.0152 165.135 32.2191C164.802 31.423 164.314 30.7069 163.703 30.1153C163.092 29.5238 162.37 29.0695 161.582 28.7808C160.795 28.4921 159.958 28.3753 159.125 28.4375V28.4375ZM159.125 38.1875H155.046V31.265H159.188C159.627 31.265 160.062 31.3549 160.468 31.5297C160.873 31.7045 161.242 31.9606 161.553 32.2835C161.863 32.6064 162.11 32.9898 162.278 33.4117C162.446 33.8336 162.532 34.2858 162.532 34.7425C162.532 35.1992 162.446 35.6514 162.278 36.0733C162.11 36.4952 161.863 36.8785 161.553 37.2015C161.242 37.5244 160.873 37.7805 160.468 37.9553C160.062 38.13 159.627 38.22 159.188 38.22L159.125 38.1875ZM177.162 35.2787C176.097 35.2105 175.037 35.4681 174.112 36.0198C173.187 36.5714 172.438 37.3928 171.957 38.3825L174.536 39.5037C174.797 39.0153 175.188 38.6157 175.662 38.3533C176.136 38.0909 176.673 37.9769 177.209 38.025C177.58 37.9799 177.956 38.0122 178.315 38.1198C178.673 38.2274 179.008 38.4082 179.299 38.6518C179.59 38.8953 179.832 39.1967 180.009 39.5382C180.187 39.8798 180.298 40.2548 180.335 40.6412V40.8362C179.395 40.3226 178.349 40.0549 177.287 40.0562C174.505 40.0562 171.66 41.6812 171.66 44.6387C171.688 45.2674 171.836 45.8838 172.098 46.4515C172.359 47.0192 172.727 47.5265 173.18 47.9434C173.634 48.3602 174.163 48.6781 174.737 48.878C175.311 49.078 175.918 49.1561 176.521 49.1075C177.254 49.1497 177.985 48.9883 178.639 48.6399C179.293 48.2916 179.846 47.7687 180.241 47.125H180.335V48.75H183.148V40.9337C183.148 37.375 180.553 35.3112 177.224 35.3112L177.162 35.2787ZM176.802 46.41C175.849 46.41 174.52 45.9062 174.52 44.6875C174.52 43.0625 176.177 42.51 177.646 42.51C178.575 42.4862 179.492 42.7219 180.303 43.1925C180.205 44.075 179.803 44.8906 179.17 45.4882C178.538 46.0857 177.719 46.4248 176.865 46.4425L176.802 46.41ZM193.401 35.75L190.056 44.5575H189.962L186.493 35.75H183.367L188.571 48.0675L185.602 54.9087H188.65L196.652 35.75H193.401ZM167.143 48.75H170.05V28.4375H167.143V48.75Z" fill="white"/>
<path d="M16.3175 12.2525C15.8024 12.8857 15.5396 13.6995 15.5829 14.5275V50.4725C15.5297 51.3019 15.7937 52.1195 16.3175 52.7475L16.4269 52.8775L35.792 32.7438V32.2563L16.4269 12.1388L16.3175 12.2525Z" fill="url(#paint0_linear_342_3338)"/>
<path d="M42.2001 39.455L35.792 32.7437V32.2562L42.2001 25.545L42.3408 25.6425L50.015 30.16C52.2031 31.4437 52.2031 33.5562 50.015 34.8562L42.3721 39.3737L42.2001 39.455Z" fill="url(#paint1_linear_342_3338)"/>
<path d="M42.3876 39.3576L35.7919 32.5001L16.3174 52.7476C16.759 53.1563 17.3243 53.3914 17.9153 53.4122C18.5062 53.433 19.0855 53.2381 19.5527 52.8613L42.3876 39.3576" fill="url(#paint2_linear_342_3338)"/>
<path d="M42.3876 25.6424L19.5527 12.1549C19.0886 11.7729 18.5097 11.5733 17.918 11.5911C17.3262 11.609 16.7595 11.8431 16.3174 12.2525L35.7919 32.4999L42.3876 25.6424Z" fill="url(#paint3_linear_342_3338)"/>
<path opacity="0.2" d="M42.2 39.2112L19.5527 52.6175C19.1025 52.9708 18.5538 53.1619 17.9898 53.1619C17.4257 53.1619 16.877 52.9708 16.4268 52.6175V52.6175L16.3174 52.7312L16.4268 52.8612C16.877 53.2145 17.4257 53.4056 17.9898 53.4056C18.5538 53.4056 19.1025 53.2145 19.5527 52.8612L42.3876 39.3575L42.2 39.2112Z" fill="black"/>
<path opacity="0.12" d="M16.3178 52.52C15.8157 51.8755 15.5697 51.0558 15.6301 50.2288V50.4725C15.5769 51.3019 15.8409 52.1195 16.3647 52.7475L16.4741 52.6338L16.3178 52.52Z" fill="black"/>
<path opacity="0.12" d="M50.016 34.6126L42.2012 39.2113L42.3418 39.3576L50.016 34.8401C50.469 34.6409 50.8619 34.3185 51.1535 33.9067C51.4451 33.4949 51.6244 33.0089 51.6727 32.5001C51.575 32.9625 51.3742 33.3946 51.0864 33.7615C50.7986 34.1284 50.432 34.42 50.016 34.6126Z" fill="black"/>
<path opacity="0.25" d="M19.5529 12.3825L50.0151 30.3875C50.4311 30.5801 50.7977 30.8716 51.0855 31.2385C51.3733 31.6055 51.5741 32.0375 51.6718 32.5C51.6235 31.9911 51.4442 31.5052 51.1526 31.0934C50.861 30.6816 50.4681 30.3591 50.0151 30.16L19.5529 12.155C17.3804 10.855 15.583 11.9275 15.583 14.5275V14.7712C15.6299 12.1712 17.3804 11.0987 19.5529 12.3825Z" fill="white"/>
</g>
<g clip-path="url(#clip1_342_3338)">
<path d="M417.799 9.24297e-05H236.211C235.549 9.24297e-05 234.895 9.24298e-05 234.235 0.00339243C233.682 0.00669243 233.134 0.0162789 232.576 0.0243474C231.364 0.0373854 230.155 0.134858 228.959 0.315919C227.764 0.500921 226.608 0.849703 225.527 1.35047C224.449 1.85547 223.463 2.51167 222.606 3.29526C221.744 4.07664 221.026 4.97982 220.479 5.97006C219.93 6.95832 219.55 8.01734 219.351 9.11053C219.15 10.2023 219.042 11.3068 219.027 12.4138C219.011 12.9197 219.009 13.4273 219 13.9333V52.0718C219.009 52.5841 219.011 53.0804 219.027 53.5929C219.042 54.6999 219.15 55.8043 219.351 56.896C219.549 57.9899 219.93 59.0495 220.479 60.0381C221.026 61.0252 221.744 61.9247 222.606 62.7017C223.459 63.4888 224.446 64.1455 225.527 64.6466C226.608 65.1487 227.764 65.4996 228.959 65.6874C230.155 65.867 231.364 65.9645 232.576 65.9791C233.134 65.9904 233.682 65.9968 234.235 65.9968C234.895 66.0001 235.549 66.0001 236.211 66.0001H417.799C418.448 66.0001 419.107 66.0001 419.756 65.9968C420.306 65.9968 420.87 65.9904 421.42 65.9791C422.63 65.9653 423.836 65.8678 425.03 65.6874C426.228 65.4982 427.389 65.1475 428.474 64.6466C429.555 64.1452 430.54 63.4885 431.394 62.7017C432.253 61.9217 432.973 61.0228 433.526 60.0381C434.071 59.0488 434.448 57.9892 434.644 56.896C434.845 55.8041 434.957 54.7 434.979 53.5929C434.986 53.0804 434.986 52.5841 434.986 52.0718C435 51.4723 435 50.8762 435 50.267V15.7347C435 15.1305 435 14.531 434.986 13.9333C434.986 13.4273 434.986 12.9197 434.979 12.4138C434.957 11.3066 434.845 10.2024 434.644 9.11047C434.448 8.01791 434.071 6.95897 433.526 5.96999C432.412 3.98517 430.645 2.36953 428.474 1.35032C427.389 0.850779 426.228 0.502089 425.03 0.31577C423.837 0.133912 422.63 0.0364052 421.42 0.0241164C420.87 0.0160644 420.306 0.00639543 419.756 0.00317793C419.107 -0.00012207 418.448 -0.00012207 417.799 -0.00012207V9.24297e-05Z" fill="#A6A6A6"/>
<path d="M234.244 64.5562C233.694 64.5562 233.157 64.5498 232.611 64.5386C231.481 64.5251 230.353 64.4352 229.238 64.2695C228.197 64.1057 227.189 63.801 226.247 63.3654C225.314 62.9335 224.462 62.3671 223.725 61.688C222.978 61.0169 222.356 60.2386 221.883 59.3838C221.406 58.5235 221.075 57.6013 220.903 56.6494C220.717 55.6266 220.617 54.5924 220.603 53.5557C220.591 53.2077 220.576 52.0491 220.576 52.0491V13.9331C220.576 13.9331 220.592 12.7923 220.603 12.4571C220.616 11.4221 220.716 10.3895 220.901 9.36823C221.074 8.41374 221.405 7.48891 221.882 6.62576C222.353 5.77158 222.972 4.99265 223.715 4.31915C224.457 3.63925 225.311 3.06997 226.246 2.63207C227.186 2.19793 228.192 1.89538 229.23 1.73457C230.35 1.56721 231.482 1.47672 232.616 1.46387L234.245 1.44373H419.747L421.395 1.46468C422.519 1.47689 423.641 1.56657 424.75 1.73295C425.799 1.89578 426.815 2.20044 427.766 2.63691C429.639 3.5194 431.164 4.91559 432.125 6.62979C432.596 7.48698 432.921 8.40426 433.091 9.35051C433.279 10.3801 433.384 11.4208 433.405 12.4644C433.41 12.9317 433.41 13.4336 433.41 13.9331C433.425 14.5519 433.425 15.1408 433.425 15.7346V50.2669C433.425 50.8663 433.425 51.4513 433.41 52.041C433.41 52.5776 433.41 53.0691 433.403 53.575C433.382 54.5999 433.279 55.6221 433.095 56.6333C432.926 57.592 432.598 58.5214 432.12 59.3888C431.644 60.2342 431.026 61.0059 430.287 61.6752C429.549 62.3579 428.696 62.9276 427.761 63.3623C426.813 63.8012 425.798 64.107 424.75 64.2695C423.634 64.436 422.506 64.526 421.376 64.5386C420.847 64.5498 420.294 64.5562 419.756 64.5562L417.799 64.5595L234.244 64.5562Z" fill="black"/>
<path d="M263.709 33.4962C263.728 32.119 264.129 30.7687 264.872 29.5709C265.616 28.373 266.679 27.3666 267.963 26.6453C267.147 25.5808 266.072 24.7047 264.821 24.0867C263.57 23.4687 262.179 23.1258 260.758 23.0851C257.727 22.7943 254.789 24.7431 253.244 24.7431C251.67 24.7431 249.292 23.114 246.731 23.1622C245.074 23.2111 243.46 23.6514 242.045 24.4402C240.63 25.229 239.463 26.3394 238.657 27.6632C235.166 33.188 237.77 41.3078 241.114 45.7737C242.787 47.9605 244.742 50.4033 247.301 50.3166C249.805 50.2217 250.74 48.8572 253.762 48.8572C256.756 48.8572 257.633 50.3166 260.244 50.2616C262.93 50.2217 264.623 48.065 266.238 45.8575C267.44 44.2993 268.365 42.5771 268.978 40.7548C267.417 40.1514 266.086 39.1413 265.148 37.8505C264.211 36.5597 263.711 35.0453 263.709 33.4962V33.4962Z" fill="white"/>
<path d="M258.779 20.148C260.244 18.5406 260.966 16.4745 260.791 14.3885C258.553 14.6034 256.486 15.5811 255.001 17.1268C254.275 17.882 253.719 18.7605 253.365 19.7122C253.011 20.6639 252.865 21.67 252.937 22.6731C254.056 22.6837 255.163 22.4619 256.175 22.0245C257.187 21.5871 258.078 20.9455 258.779 20.148Z" fill="white"/>
<path d="M295.356 44.7805H286.812L284.761 50.3187H281.142L289.234 29.829H292.994L301.087 50.3187H297.406L295.356 44.7805ZM287.697 42.225H294.47L291.131 33.237H291.038L287.697 42.225Z" fill="white"/>
<path d="M318.565 42.8501C318.565 47.4924 315.847 50.4749 311.745 50.4749C310.706 50.5246 309.672 50.3058 308.763 49.8436C307.854 49.3814 307.105 48.6944 306.603 47.8613H306.525V55.2606H303.171V35.38H306.418V37.8647H306.48C307.005 37.0356 307.766 36.3522 308.682 35.8871C309.599 35.4221 310.636 35.1928 311.683 35.2237C315.831 35.2237 318.565 38.2208 318.565 42.8501ZM315.117 42.8501C315.117 39.8257 313.407 37.8373 310.798 37.8373C308.235 37.8373 306.511 39.8676 306.511 42.8501C306.511 45.8601 308.235 47.8759 310.798 47.8759C313.407 47.8759 315.117 45.902 315.117 42.8501Z" fill="white"/>
<path d="M336.551 42.8501C336.551 47.4924 333.833 50.4749 329.731 50.4749C328.692 50.5246 327.659 50.3058 326.749 49.8436C325.84 49.3813 325.091 48.6944 324.589 47.8613H324.512V55.2605H321.157V35.38H324.404V37.8647H324.466C324.991 37.0356 325.752 36.3522 326.669 35.8871C327.585 35.4221 328.622 35.1928 329.67 35.2237C333.817 35.2237 336.551 38.2208 336.551 42.8501ZM333.103 42.8501C333.103 39.8257 331.394 37.8373 328.785 37.8373C326.222 37.8373 324.498 39.8675 324.498 42.8501C324.498 45.8601 326.222 47.8759 328.785 47.8759C331.394 47.8759 333.103 45.902 333.103 42.8501H333.103Z" fill="white"/>
<path d="M348.44 44.6097C348.688 46.6416 350.848 47.9757 353.798 47.9757C356.626 47.9757 358.66 46.6415 358.66 44.8094C358.66 43.219 357.433 42.2668 354.528 41.6142L351.623 40.9745C347.507 40.0657 345.596 38.3061 345.596 35.4508C345.596 31.9156 348.967 29.4873 353.753 29.4873C358.489 29.4873 361.736 31.9156 361.845 35.4508H358.459C358.256 33.4061 356.407 32.1718 353.705 32.1718C351.003 32.1718 349.154 33.4206 349.154 35.2381C349.154 36.6867 350.335 37.5391 353.224 38.1916L355.693 38.7459C360.292 39.7401 362.203 41.4288 362.203 44.4259C362.203 48.2592 358.863 50.6601 353.55 50.6601C348.579 50.6601 345.223 48.3156 345.006 44.6096L348.44 44.6097Z" fill="white"/>
<path d="M369.442 31.8447V35.38H372.55V37.8083H369.442V46.0438C369.442 47.3231 370.064 47.9193 371.43 47.9193C371.799 47.9135 372.168 47.8898 372.534 47.8484V50.2622C371.92 50.3671 371.295 50.4146 370.671 50.404C367.362 50.404 366.071 49.268 366.071 46.3708V37.8083H363.695V35.38H366.071V31.8447H369.442Z" fill="white"/>
<path d="M374.35 42.8502C374.35 38.1499 377.378 35.1964 382.1 35.1964C386.839 35.1964 389.853 38.1498 389.853 42.8502C389.853 47.5633 386.855 50.504 382.1 50.504C377.348 50.504 374.35 47.5633 374.35 42.8502ZM386.435 42.8502C386.435 39.6259 384.819 37.7229 382.1 37.7229C379.382 37.7229 377.768 39.6404 377.768 42.8502C377.768 46.0873 379.382 47.9758 382.1 47.9758C384.819 47.9758 386.435 46.0873 386.435 42.8502H386.435Z" fill="white"/>
<path d="M392.619 35.38H395.819V37.9226H395.896C396.113 37.1285 396.622 36.4267 397.337 35.9352C398.053 35.4437 398.932 35.1924 399.827 35.2237C400.214 35.2224 400.599 35.2608 400.976 35.3381V38.2062C400.488 38.0699 399.979 38.0073 399.469 38.0209C398.982 38.0029 398.496 38.0814 398.045 38.2512C397.594 38.4209 397.189 38.6779 396.857 39.0044C396.524 39.3309 396.274 39.7193 396.121 40.1428C395.969 40.5663 395.918 41.0149 395.974 41.4579V50.3186H392.619L392.619 35.38Z" fill="white"/>
<path d="M416.443 45.931C415.992 48.6429 413.103 50.504 409.406 50.504C404.652 50.504 401.701 47.5923 401.701 42.9211C401.701 38.2353 404.668 35.1964 409.265 35.1964C413.787 35.1964 416.63 38.0355 416.63 42.565V43.6155H405.087V43.8008C405.034 44.3506 405.109 44.9045 405.308 45.4256C405.507 45.9467 405.825 46.4232 406.241 46.8234C406.657 47.2236 407.161 47.5384 407.72 47.7468C408.279 47.9552 408.88 48.0525 409.484 48.0322C410.276 48.1001 411.072 47.9322 411.752 47.5537C412.432 47.1751 412.96 46.606 413.258 45.931L416.443 45.931ZM405.103 41.4725H413.274C413.304 40.9781 413.222 40.4835 413.033 40.0195C412.844 39.5555 412.552 39.1322 412.176 38.7762C411.799 38.4201 411.346 38.1391 410.846 37.9506C410.345 37.7622 409.807 37.6704 409.265 37.681C408.719 37.678 408.177 37.774 407.672 37.9633C407.166 38.1526 406.707 38.4316 406.32 38.7841C405.933 39.1366 405.626 39.5556 405.417 40.0171C405.209 40.4785 405.102 40.9731 405.103 41.4725V41.4725Z" fill="white"/>
<path d="M287.279 14.4062C287.982 14.3601 288.688 14.4572 289.345 14.6905C290.003 14.9239 290.595 15.2877 291.08 15.7557C291.565 16.2237 291.93 16.7842 292.149 17.3968C292.368 18.0094 292.436 18.6588 292.347 19.2982C292.347 22.4435 290.487 24.2515 287.279 24.2515H283.389V14.4062H287.279ZM285.062 22.8591H287.092C287.595 22.8866 288.098 22.8113 288.564 22.6387C289.031 22.4661 289.45 22.2005 289.79 21.8613C290.13 21.5221 290.383 21.1179 290.531 20.6779C290.679 20.238 290.718 19.7735 290.644 19.3182C290.712 18.8648 290.67 18.4031 290.52 17.9664C290.37 17.5298 290.116 17.1288 289.776 16.7923C289.437 16.4558 289.02 16.1921 288.556 16.0202C288.092 15.8482 287.592 15.7721 287.092 15.7975H285.062V22.8591Z" fill="white"/>
<path d="M294.236 20.5331C294.185 20.0449 294.246 19.5522 294.415 19.0868C294.585 18.6214 294.859 18.1935 295.22 17.8305C295.58 17.4675 296.02 17.1775 296.511 16.9791C297.002 16.7806 297.532 16.6781 298.069 16.6781C298.606 16.6781 299.136 16.7806 299.627 16.9791C300.118 17.1775 300.558 17.4675 300.918 17.8305C301.279 18.1935 301.553 18.6214 301.723 19.0868C301.892 19.5522 301.953 20.0449 301.902 20.5331C301.954 21.0219 301.894 21.5152 301.725 21.9814C301.556 22.4475 301.282 22.8762 300.921 23.2399C300.56 23.6036 300.12 23.8942 299.629 24.0931C299.138 24.292 298.606 24.3947 298.069 24.3947C297.532 24.3947 297 24.292 296.509 24.0931C296.018 23.8942 295.578 23.6036 295.217 23.2399C294.856 22.8762 294.582 22.4475 294.413 21.9814C294.244 21.5152 294.184 21.0219 294.236 20.5331V20.5331ZM300.252 20.5331C300.252 18.9226 299.461 17.9808 298.072 17.9808C296.677 17.9808 295.893 18.9226 295.893 20.5331C295.893 22.1566 296.677 23.0911 298.072 23.0911C299.461 23.0911 300.252 22.1501 300.252 20.5331H300.252Z" fill="white"/>
<path d="M312.093 24.2513H310.429L308.749 18.7792H308.622L306.949 24.2513H305.301L303.061 16.8215H304.688L306.144 22.4909H306.263L307.935 16.8215H309.473L311.145 22.4909H311.271L312.72 16.8215H314.324L312.093 24.2513Z" fill="white"/>
<path d="M316.209 16.8214H317.753V18.0017H317.873C318.076 17.5778 318.419 17.2225 318.854 16.9852C319.289 16.7479 319.794 16.6405 320.299 16.678C320.694 16.6508 321.091 16.7054 321.46 16.8375C321.83 16.9697 322.162 17.1761 322.432 17.4415C322.702 17.7069 322.904 18.0244 323.021 18.3706C323.139 18.7168 323.17 19.0828 323.112 19.4414V24.2512H321.508V19.8097C321.508 18.6157 320.94 18.0219 319.754 18.0219C319.485 18.0105 319.217 18.0522 318.968 18.1444C318.719 18.2365 318.494 18.3768 318.31 18.5556C318.126 18.7344 317.986 18.9476 317.9 19.1804C317.814 19.4133 317.785 19.6604 317.813 19.9047V24.2513H316.209L316.209 16.8214Z" fill="white"/>
<path d="M325.668 13.9211H327.272V24.2513H325.668V13.9211Z" fill="white"/>
<path d="M329.501 20.5331C329.45 20.0448 329.512 19.5522 329.681 19.0867C329.85 18.6213 330.124 18.1934 330.485 17.8304C330.846 17.4674 331.286 17.1774 331.777 16.979C332.268 16.7805 332.798 16.678 333.335 16.678C333.872 16.678 334.402 16.7805 334.893 16.979C335.384 17.1774 335.824 17.4674 336.185 17.8304C336.546 18.1934 336.82 18.6213 336.989 19.0867C337.158 19.5522 337.22 20.0448 337.169 20.5331C337.221 21.0219 337.16 21.5153 336.991 21.9814C336.822 22.4476 336.548 22.8763 336.187 23.2399C335.826 23.6036 335.386 23.8942 334.895 24.0931C334.404 24.292 333.872 24.3947 333.335 24.3947C332.798 24.3947 332.266 24.292 331.775 24.0931C331.284 23.8942 330.844 23.6036 330.483 23.2399C330.122 22.8763 329.848 22.4476 329.679 21.9814C329.51 21.5153 329.449 21.0219 329.501 20.5331V20.5331ZM335.518 20.5331C335.518 18.9226 334.726 17.9808 333.337 17.9808C331.943 17.9808 331.159 18.9226 331.159 20.5332C331.159 22.1566 331.943 23.0911 333.337 23.0911C334.726 23.0911 335.518 22.1501 335.518 20.5331H335.518Z" fill="white"/>
<path d="M338.858 22.1502C338.858 20.8128 339.948 20.0417 341.881 19.9322L344.083 19.8162V19.1748C344.083 18.3901 343.516 17.947 342.419 17.947C341.524 17.947 340.903 18.2475 340.725 18.7728H339.172C339.336 17.4966 340.649 16.6781 342.493 16.6781C344.531 16.6781 345.68 17.6054 345.68 19.1748V24.2513H344.136V23.2072H344.009C343.752 23.5817 343.39 23.8871 342.961 24.092C342.532 24.297 342.051 24.3942 341.568 24.3738C341.227 24.4062 340.882 24.3729 340.555 24.2761C340.229 24.1792 339.929 24.0209 339.673 23.8114C339.418 23.6019 339.214 23.3459 339.073 23.0597C338.933 22.7736 338.86 22.4637 338.858 22.1502V22.1502ZM344.083 21.5153V20.8941L342.098 21.0101C340.979 21.0786 340.471 21.4267 340.471 22.0817C340.471 22.7504 341.106 23.1395 341.979 23.1395C342.234 23.1632 342.492 23.1396 342.738 23.0701C342.983 23.0007 343.211 22.8868 343.408 22.7352C343.604 22.5837 343.765 22.3976 343.881 22.188C343.997 21.9784 344.066 21.7497 344.083 21.5153V21.5153Z" fill="white"/>
<path d="M347.788 20.5332C347.788 18.1855 349.108 16.6982 351.162 16.6982C351.67 16.6768 352.174 16.788 352.615 17.0189C353.057 17.2497 353.417 17.5906 353.655 18.0017H353.774V13.9211H355.378V24.2513H353.841V23.0774H353.714C353.459 23.4858 353.086 23.8225 352.636 24.051C352.186 24.2795 351.676 24.3911 351.162 24.3737C349.094 24.3738 347.788 22.8865 347.788 20.5332ZM349.445 20.5332C349.445 22.1091 350.258 23.0573 351.617 23.0573C352.969 23.0573 353.804 22.0954 353.804 20.5396C353.804 18.9912 352.96 18.0155 351.617 18.0155C350.267 18.0155 349.445 18.9702 349.445 20.5332H349.445Z" fill="white"/>
<path d="M362.014 20.5331C361.963 20.0449 362.024 19.5522 362.194 19.0868C362.363 18.6214 362.637 18.1935 362.998 17.8305C363.359 17.4675 363.799 17.1775 364.289 16.9791C364.78 16.7806 365.311 16.6781 365.847 16.6781C366.384 16.6781 366.915 16.7806 367.405 16.9791C367.896 17.1775 368.336 17.4675 368.697 17.8305C369.058 18.1935 369.332 18.6214 369.501 19.0868C369.67 19.5522 369.732 20.0449 369.68 20.5331C369.732 21.0219 369.672 21.5152 369.503 21.9814C369.334 22.4475 369.06 22.8762 368.699 23.2399C368.338 23.6036 367.898 23.8942 367.407 24.0931C366.916 24.292 366.385 24.3947 365.847 24.3947C365.31 24.3947 364.779 24.292 364.288 24.0931C363.796 23.8942 363.356 23.6036 362.995 23.2399C362.634 22.8762 362.36 22.4475 362.191 21.9814C362.023 21.5152 361.962 21.0219 362.014 20.5331V20.5331ZM368.03 20.5331C368.03 18.9226 367.239 17.9808 365.85 17.9808C364.456 17.9808 363.671 18.9226 363.671 20.5331C363.671 22.1566 364.456 23.0911 365.85 23.0911C367.239 23.0911 368.03 22.1501 368.03 20.5331Z" fill="white"/>
<path d="M371.833 16.8214H373.377V18.0017H373.497C373.7 17.5778 374.043 17.2225 374.478 16.9852C374.913 16.7479 375.418 16.6405 375.923 16.678C376.318 16.6508 376.715 16.7054 377.084 16.8375C377.454 16.9697 377.786 17.1761 378.056 17.4415C378.326 17.7069 378.528 18.0244 378.645 18.3706C378.763 18.7168 378.794 19.0828 378.736 19.4414V24.2512H377.132V19.8097C377.132 18.6157 376.564 18.0219 375.378 18.0219C375.109 18.0105 374.841 18.0522 374.592 18.1444C374.343 18.2365 374.118 18.3768 373.934 18.5556C373.75 18.7344 373.61 18.9476 373.524 19.1804C373.438 19.4133 373.409 19.6604 373.437 19.9047V24.2513H371.833V16.8214Z" fill="white"/>
<path d="M387.801 14.9717V16.8553H389.562V18.0904H387.801V21.9109C387.801 22.6891 388.152 23.0299 388.951 23.0299C389.155 23.0293 389.359 23.018 389.562 22.9961V24.2175C389.274 24.2646 388.983 24.2896 388.69 24.2924C386.906 24.2924 386.196 23.7188 386.196 22.2863V18.0903H384.905V16.8553H386.196V14.9717H387.801Z" fill="white"/>
<path d="M391.752 13.9211H393.342V18.0155H393.469C393.682 17.5876 394.034 17.2302 394.478 16.992C394.921 16.7539 395.435 16.6465 395.947 16.6845C396.341 16.6649 396.734 16.725 397.099 16.8604C397.464 16.9957 397.792 17.2031 398.059 17.4676C398.327 17.7322 398.527 18.0474 398.646 18.3909C398.765 18.7343 398.799 19.0974 398.746 19.4544V24.2513H397.141V19.8161C397.141 18.6294 396.536 18.0283 395.403 18.0283C395.127 18.0077 394.85 18.0423 394.59 18.1299C394.331 18.2174 394.095 18.3557 393.9 18.5351C393.705 18.7145 393.556 18.9307 393.462 19.1686C393.368 19.4064 393.332 19.6601 393.356 19.912V24.2513H391.752L391.752 13.9211Z" fill="white"/>
<path d="M408.1 22.2452C407.882 22.9243 407.41 23.5116 406.766 23.9046C406.123 24.2975 405.348 24.471 404.578 24.3947C404.043 24.4077 403.511 24.3139 403.019 24.12C402.527 23.9261 402.087 23.6366 401.73 23.2717C401.373 22.9069 401.107 22.4753 400.95 22.007C400.794 21.5387 400.75 21.0449 400.824 20.5598C400.752 20.0732 400.796 19.5783 400.952 19.1086C401.109 18.6389 401.373 18.2054 401.729 17.8373C402.084 17.4692 402.522 17.1752 403.012 16.9752C403.503 16.7752 404.034 16.6739 404.571 16.6781C406.833 16.6781 408.197 18.0905 408.197 20.4236V20.9353H402.458V21.0174C402.433 21.2901 402.47 21.5645 402.568 21.8232C402.666 22.0818 402.821 22.3189 403.025 22.5193C403.229 22.7197 403.476 22.879 403.751 22.9869C404.026 23.0948 404.323 23.149 404.622 23.1459C405.006 23.188 405.395 23.1249 405.739 22.9645C406.084 22.8041 406.368 22.5537 406.556 22.2452L408.1 22.2452ZM402.458 19.8508H406.563C406.583 19.6014 406.546 19.351 406.454 19.1155C406.362 18.88 406.218 18.6647 406.029 18.4834C405.841 18.3022 405.613 18.159 405.36 18.063C405.108 17.967 404.836 17.9203 404.562 17.9261C404.285 17.9229 404.01 17.9705 403.753 18.0661C403.496 18.1617 403.262 18.3034 403.066 18.4828C402.87 18.6621 402.715 18.8756 402.611 19.1106C402.506 19.3455 402.454 19.5972 402.458 19.8508H402.458Z" fill="white"/>
</g>
<defs>
<linearGradient id="paint0_linear_342_3338" x1="34.0727" y1="14.1538" x2="6.82589" y2="40.3605" gradientUnits="userSpaceOnUse">
<stop stop-color="#00A0FF"/>
<stop offset="0.01" stop-color="#00A1FF"/>
<stop offset="0.26" stop-color="#00BEFF"/>
<stop offset="0.51" stop-color="#00D2FF"/>
<stop offset="0.76" stop-color="#00DFFF"/>
<stop offset="1" stop-color="#00E3FF"/>
</linearGradient>
<linearGradient id="paint1_linear_342_3338" x1="52.8752" y1="32.5" x2="15.0671" y2="32.5" gradientUnits="userSpaceOnUse">
<stop stop-color="#FFE000"/>
<stop offset="0.41" stop-color="#FFBD00"/>
<stop offset="0.78" stop-color="#FFA500"/>
<stop offset="1" stop-color="#FF9C00"/>
</linearGradient>
<linearGradient id="paint2_linear_342_3338" x1="38.8084" y1="36.2376" x2="1.85205" y2="71.7674" gradientUnits="userSpaceOnUse">
<stop stop-color="#FF3A44"/>
<stop offset="1" stop-color="#C31162"/>
</linearGradient>
<linearGradient id="paint3_linear_342_3338" x1="11.4097" y1="0.292451" x2="27.9072" y2="16.1601" gradientUnits="userSpaceOnUse">
<stop stop-color="#32A071"/>
<stop offset="0.07" stop-color="#2DA771"/>
<stop offset="0.48" stop-color="#15CF74"/>
<stop offset="0.8" stop-color="#06E775"/>
<stop offset="1" stop-color="#00F076"/>
</linearGradient>
<clipPath id="clip0_342_3338">
<rect width="211" height="65" fill="white"/>
</clipPath>
<clipPath id="clip1_342_3338">
<rect width="216" height="66" fill="white" transform="translate(219)"/>
</clipPath>
</defs>
</svg>
