<svg width="48" height="48" viewBox="0 0 48 48" fill="none" xmlns="http://www.w3.org/2000/svg">
<path d="M14 20V14C14 11.3478 15.0536 8.8043 16.9289 6.92893C18.8043 5.05357 21.3478 4 24 4C26.6522 4 29.1957 5.05357 31.0711 6.92893C32.9464 8.8043 34 11.3478 34 14V20M26 32C26 33.1046 25.1046 34 24 34C22.8954 34 22 33.1046 22 32C22 30.8954 22.8954 30 24 30C25.1046 30 26 30.8954 26 32ZM10 20H38C40.2091 20 42 21.7909 42 24V40C42 42.2091 40.2091 44 38 44H10C7.79086 44 6 42.2091 6 40V24C6 21.7909 7.79086 20 10 20Z" stroke="#212121" stroke-width="3" stroke-linecap="round" stroke-linejoin="round"/>
</svg>
