<svg width="48" height="48" viewBox="0 0 48 48" fill="none" xmlns="http://www.w3.org/2000/svg">
<path d="M24 6C21.6131 8.38695 20.2721 11.6243 20.2721 15C20.2721 18.3757 21.6131 21.6131 24 24C26.387 26.3869 29.6244 27.7279 33 27.7279C36.3757 27.7279 39.6131 26.3869 42 24C42 27.5601 40.9443 31.0402 38.9665 34.0003C36.9886 36.9603 34.1774 39.2675 30.8883 40.6298C27.5992 41.9922 23.98 42.3487 20.4884 41.6541C16.9967 40.9596 13.7894 39.2453 11.2721 36.7279C8.75474 34.2106 7.04041 31.0033 6.34587 27.5116C5.65134 24.02 6.0078 20.4008 7.37018 17.1117C8.73255 13.8226 11.0397 11.0114 13.9997 9.03355C16.9598 7.05568 20.4399 6 24 6Z" stroke="#212121" stroke-width="3" stroke-linecap="round" stroke-linejoin="round"/>
</svg>
