<svg width="174" height="50" viewBox="0 0 174 50" fill="none" xmlns="http://www.w3.org/2000/svg">
<path d="M28.7966 25.1795C29.3549 24.5643 30.4145 24.5748 31.059 25.1795C31.6434 25.7278 31.7478 26.507 31.3622 27.2097C30.0561 29.59 26.483 31.6179 22.6627 31.6902C18.6959 31.7653 14.8961 29.7534 13.5434 27.2097C13.3449 26.8363 13.0611 25.9029 13.9166 25.1795C14.5427 24.6501 15.4559 24.6129 16.0157 25.1795C18.0214 27.2097 19.8034 28.3498 22.6627 28.2598C25.3416 28.1756 26.9541 27.2099 28.7966 25.1795Z" fill="#2740CD"/>
<path d="M15.2693 13.2316C17.2136 13.1786 18.8238 14.8095 18.791 16.7553C18.7588 18.6692 17.1817 20.2145 15.2693 20.1624C13.4086 20.1117 11.9654 18.6175 11.9341 16.7553C11.9022 14.8603 13.3758 13.2831 15.2693 13.2316Z" fill="#2740CD"/>
<path d="M29.3097 13.2316C31.254 13.1786 32.8642 14.8095 32.8315 16.7553C32.7993 18.6692 31.2221 20.2145 29.3097 20.1624C27.449 20.1117 26.0058 18.6175 25.9745 16.7553C25.9427 14.8603 27.4162 13.2831 29.3097 13.2316Z" fill="#2740CD"/>
<path fill-rule="evenodd" clip-rule="evenodd" d="M34.3475 0.0933444C38.035 0.303369 39.9647 0.606865 42.254 2.96368C44.6613 5.44213 44.6537 9.63781 44.8195 11.4347C44.9852 13.2316 45.1252 31.0137 44.8195 33.9074C44.5138 36.801 44.0863 38.2734 42.254 40.1848C39.9908 42.5455 34.3475 42.9384 34.3475 42.9384H18.208C18.1954 42.9474 11.1902 47.9324 8.80881 49.2625C6.42738 50.5927 5.17292 50.1493 5.17292 47.7223C5.17292 45.2954 5.17292 41.8416 5.17292 41.8416C5.16521 41.8376 3.12079 40.4756 1.92854 38.9246C0.650766 37.2624 0.0627005 34.8875 0.0160546 33.9074C-0.0305912 32.9272 0.0418644 13.2316 0.0160546 11.4347C-0.00975516 9.63781 0.135243 5.4619 2.51161 2.96368C4.9515 0.398708 8.43316 0.0933444 11.1178 0.0933444C13.8024 0.0933444 30.66 -0.116681 34.3475 0.0933444ZM11.9108 4.24717C11.9001 4.24723 7.6489 4.27344 5.94009 5.99738C4.57636 7.37319 4.11841 9.42778 4.07425 10.5946C4.03009 11.7614 4.05093 32.2505 4.07425 32.6705C4.09757 33.0906 4.33081 35.3542 5.94009 36.801C7.54581 38.2447 8.59642 38.3179 8.80881 38.6212C9.02121 38.9246 8.80881 44.5486 8.80881 44.5486C8.80881 44.5486 15.6633 38.6212 16.8086 38.6212C17.9539 38.6212 31.6678 38.8546 34.3475 38.6212C37.0271 38.3879 38.0767 37.5011 38.8721 36.801C39.6676 36.1009 40.6189 34.3974 40.8312 32.6705C41.0436 30.9437 40.9037 12.6715 40.8312 10.5946C40.7588 8.51768 40.2831 7.345 38.8721 5.99738C37.5018 4.68858 36.1175 4.24717 34.3475 4.24717C32.5774 4.24717 11.9108 4.24717 11.9108 4.24717Z" fill="#2740CD"/>
<path d="M61.925 34.25C60.475 34.25 59.2167 34.0083 58.15 33.525C57.0833 33.025 56.2583 32.2667 55.675 31.25C55.0917 30.2167 54.8 28.9 54.8 27.3V17.125C54.8 16.9417 54.8583 16.7917 54.975 16.675C55.0917 16.5583 55.2333 16.5 55.4 16.5H57.675C57.8583 16.5 58 16.5583 58.1 16.675C58.2167 16.7917 58.275 16.9417 58.275 17.125V27.3C58.275 28.6667 58.6 29.6833 59.25 30.35C59.9 31 60.7917 31.325 61.925 31.325C63.0583 31.325 63.9417 31 64.575 30.35C65.225 29.6833 65.55 28.6667 65.55 27.3V17.125C65.55 16.9417 65.6083 16.7917 65.725 16.675C65.8417 16.5583 65.9917 16.5 66.175 16.5H68.425C68.6083 16.5 68.75 16.5583 68.85 16.675C68.9667 16.7917 69.025 16.9417 69.025 17.125V27.3C69.025 28.9 68.7333 30.2167 68.15 31.25C67.5833 32.2667 66.7667 33.025 65.7 33.525C64.65 34.0083 63.3917 34.25 61.925 34.25ZM79.5223 34.25C77.9723 34.25 76.6556 33.9833 75.5723 33.45C74.5056 32.9 73.6889 32.125 73.1223 31.125C72.5556 30.1083 72.2389 28.8917 72.1723 27.475C72.1556 26.7917 72.1473 26.0583 72.1473 25.275C72.1473 24.4917 72.1556 23.7417 72.1723 23.025C72.2389 21.625 72.5556 20.4167 73.1223 19.4C73.7056 18.3833 74.5306 17.6083 75.5973 17.075C76.6806 16.525 77.9889 16.25 79.5223 16.25C80.6556 16.25 81.6723 16.4 82.5723 16.7C83.4723 17 84.2389 17.4167 84.8723 17.95C85.5056 18.4667 85.9973 19.075 86.3473 19.775C86.6973 20.475 86.8806 21.2333 86.8973 22.05C86.9139 22.2 86.8639 22.325 86.7473 22.425C86.6473 22.525 86.5223 22.575 86.3723 22.575H83.9973C83.8139 22.575 83.6639 22.5333 83.5473 22.45C83.4306 22.35 83.3473 22.1917 83.2973 21.975C83.0306 20.875 82.5723 20.125 81.9223 19.725C81.2723 19.325 80.4639 19.125 79.4973 19.125C78.3806 19.125 77.4889 19.4417 76.8223 20.075C76.1556 20.6917 75.7973 21.7167 75.7473 23.15C75.6973 24.5167 75.6973 25.9167 75.7473 27.35C75.7973 28.7833 76.1556 29.8167 76.8223 30.45C77.4889 31.0667 78.3806 31.375 79.4973 31.375C80.4639 31.375 81.2723 31.175 81.9223 30.775C82.5723 30.3583 83.0306 29.6083 83.2973 28.525C83.3473 28.2917 83.4306 28.1333 83.5473 28.05C83.6639 27.9667 83.8139 27.925 83.9973 27.925H86.3723C86.5223 27.925 86.6473 27.975 86.7473 28.075C86.8639 28.175 86.9139 28.3 86.8973 28.45C86.8806 29.2667 86.6973 30.025 86.3473 30.725C85.9973 31.425 85.5056 32.0417 84.8723 32.575C84.2389 33.0917 83.4723 33.5 82.5723 33.8C81.6723 34.1 80.6556 34.25 79.5223 34.25ZM95.3121 34.25C93.9788 34.25 92.8538 34.0167 91.9371 33.55C91.0371 33.0833 90.3454 32.425 89.8621 31.575C89.3954 30.725 89.1288 29.7333 89.0621 28.6C89.0454 28.3 89.0371 27.9333 89.0371 27.5C89.0371 27.0667 89.0454 26.7 89.0621 26.4C89.1288 25.25 89.4038 24.2583 89.8871 23.425C90.3871 22.575 91.0871 21.9167 91.9871 21.45C92.9038 20.9833 94.0121 20.75 95.3121 20.75C96.6121 20.75 97.7121 20.9833 98.6121 21.45C99.5288 21.9167 100.229 22.575 100.712 23.425C101.212 24.2583 101.495 25.25 101.562 26.4C101.579 26.7 101.587 27.0667 101.587 27.5C101.587 27.9333 101.579 28.3 101.562 28.6C101.495 29.7333 101.22 30.725 100.737 31.575C100.27 32.425 99.5788 33.0833 98.6621 33.55C97.7621 34.0167 96.6454 34.25 95.3121 34.25ZM95.3121 31.775C96.1954 31.775 96.8788 31.5 97.3621 30.95C97.8454 30.3833 98.1121 29.5583 98.1621 28.475C98.1788 28.225 98.1871 27.9 98.1871 27.5C98.1871 27.1 98.1788 26.775 98.1621 26.525C98.1121 25.4583 97.8454 24.6417 97.3621 24.075C96.8788 23.5083 96.1954 23.225 95.3121 23.225C94.4288 23.225 93.7454 23.5083 93.2621 24.075C92.7788 24.6417 92.5121 25.4583 92.4621 26.525C92.4454 26.775 92.4371 27.1 92.4371 27.5C92.4371 27.9 92.4454 28.225 92.4621 28.475C92.5121 29.5583 92.7788 30.3833 93.2621 30.95C93.7454 31.5 94.4288 31.775 95.3121 31.775ZM104.957 34C104.79 34 104.649 33.9417 104.532 33.825C104.415 33.7083 104.357 33.5667 104.357 33.4V21.6C104.357 21.4333 104.415 21.2917 104.532 21.175C104.649 21.0583 104.79 21 104.957 21H107.007C107.174 21 107.315 21.0583 107.432 21.175C107.549 21.2917 107.607 21.4333 107.607 21.6V22.625C108.04 22.0917 108.59 21.65 109.257 21.3C109.94 20.9333 110.782 20.75 111.782 20.75C112.799 20.75 113.682 20.9833 114.432 21.45C115.182 21.9 115.757 22.5417 116.157 23.375C116.574 24.2083 116.782 25.2083 116.782 26.375V33.4C116.782 33.5667 116.724 33.7083 116.607 33.825C116.49 33.9417 116.349 34 116.182 34H113.982C113.815 34 113.674 33.9417 113.557 33.825C113.44 33.7083 113.382 33.5667 113.382 33.4V26.525C113.382 25.5583 113.14 24.8 112.657 24.25C112.19 23.7 111.507 23.425 110.607 23.425C109.74 23.425 109.049 23.7 108.532 24.25C108.015 24.8 107.757 25.5583 107.757 26.525V33.4C107.757 33.5667 107.699 33.7083 107.582 33.825C107.465 33.9417 107.324 34 107.157 34H104.957ZM120.558 34C120.391 34 120.249 33.9417 120.133 33.825C120.016 33.7083 119.958 33.5667 119.958 33.4V21.6C119.958 21.4333 120.016 21.2917 120.133 21.175C120.249 21.0583 120.391 21 120.558 21H122.608C122.774 21 122.916 21.0583 123.033 21.175C123.149 21.2917 123.208 21.4333 123.208 21.6V22.625C123.641 22.0917 124.191 21.65 124.858 21.3C125.541 20.9333 126.383 20.75 127.383 20.75C128.399 20.75 129.283 20.9833 130.033 21.45C130.783 21.9 131.358 22.5417 131.758 23.375C132.174 24.2083 132.383 25.2083 132.383 26.375V33.4C132.383 33.5667 132.324 33.7083 132.208 33.825C132.091 33.9417 131.949 34 131.783 34H129.583C129.416 34 129.274 33.9417 129.158 33.825C129.041 33.7083 128.983 33.5667 128.983 33.4V26.525C128.983 25.5583 128.741 24.8 128.258 24.25C127.791 23.7 127.108 23.425 126.208 23.425C125.341 23.425 124.649 23.7 124.133 24.25C123.616 24.8 123.358 25.5583 123.358 26.525V33.4C123.358 33.5667 123.299 33.7083 123.183 33.825C123.066 33.9417 122.924 34 122.758 34H120.558ZM141.158 34.25C139.308 34.25 137.842 33.7167 136.758 32.65C135.675 31.5833 135.092 30.0667 135.008 28.1C134.992 27.9333 134.983 27.725 134.983 27.475C134.983 27.2083 134.992 27 135.008 26.85C135.075 25.6 135.358 24.5167 135.858 23.6C136.375 22.6833 137.083 21.9833 137.983 21.5C138.883 21 139.942 20.75 141.158 20.75C142.508 20.75 143.642 21.0333 144.558 21.6C145.475 22.15 146.167 22.925 146.633 23.925C147.1 24.9083 147.333 26.05 147.333 27.35V27.875C147.333 28.0417 147.275 28.1833 147.158 28.3C147.042 28.4167 146.892 28.475 146.708 28.475H138.408C138.408 28.475 138.408 28.5 138.408 28.55C138.408 28.6 138.408 28.6417 138.408 28.675C138.425 29.2583 138.533 29.8 138.733 30.3C138.95 30.7833 139.258 31.175 139.658 31.475C140.075 31.775 140.567 31.925 141.133 31.925C141.6 31.925 141.992 31.8583 142.308 31.725C142.625 31.575 142.883 31.4083 143.083 31.225C143.283 31.0417 143.425 30.8917 143.508 30.775C143.658 30.575 143.775 30.4583 143.858 30.425C143.958 30.375 144.1 30.35 144.283 30.35H146.433C146.6 30.35 146.733 30.4 146.833 30.5C146.95 30.6 147 30.725 146.983 30.875C146.967 31.1417 146.825 31.4667 146.558 31.85C146.308 32.2333 145.942 32.6083 145.458 32.975C144.975 33.3417 144.367 33.65 143.633 33.9C142.917 34.1333 142.092 34.25 141.158 34.25ZM138.408 26.375H143.933V26.3C143.933 25.65 143.825 25.0833 143.608 24.6C143.392 24.1167 143.075 23.7333 142.658 23.45C142.242 23.1667 141.742 23.025 141.158 23.025C140.575 23.025 140.075 23.1667 139.658 23.45C139.242 23.7333 138.925 24.1167 138.708 24.6C138.508 25.0833 138.408 25.65 138.408 26.3V26.375ZM155.612 34.25C154.412 34.25 153.354 34.025 152.437 33.575C151.537 33.125 150.829 32.475 150.312 31.625C149.812 30.7583 149.537 29.7167 149.487 28.5C149.47 28.25 149.462 27.925 149.462 27.525C149.462 27.1083 149.47 26.7667 149.487 26.5C149.537 25.2833 149.812 24.25 150.312 23.4C150.829 22.5333 151.537 21.875 152.437 21.425C153.354 20.975 154.412 20.75 155.612 20.75C156.679 20.75 157.587 20.9 158.337 21.2C159.087 21.5 159.704 21.875 160.187 22.325C160.67 22.775 161.029 23.25 161.262 23.75C161.512 24.2333 161.645 24.675 161.662 25.075C161.679 25.2583 161.62 25.4083 161.487 25.525C161.37 25.625 161.229 25.675 161.062 25.675H158.862C158.695 25.675 158.562 25.6333 158.462 25.55C158.379 25.4667 158.295 25.3417 158.212 25.175C157.962 24.5083 157.629 24.0417 157.212 23.775C156.812 23.4917 156.295 23.35 155.662 23.35C154.829 23.35 154.162 23.6167 153.662 24.15C153.179 24.6667 152.92 25.4917 152.887 26.625C152.854 27.2583 152.854 27.8417 152.887 28.375C152.92 29.525 153.179 30.3583 153.662 30.875C154.162 31.3917 154.829 31.65 155.662 31.65C156.312 31.65 156.837 31.5167 157.237 31.25C157.637 30.9667 157.962 30.4917 158.212 29.825C158.295 29.6583 158.379 29.5333 158.462 29.45C158.562 29.3667 158.695 29.325 158.862 29.325H161.062C161.229 29.325 161.37 29.3833 161.487 29.5C161.62 29.6 161.679 29.7417 161.662 29.925C161.645 30.225 161.562 30.5667 161.412 30.95C161.279 31.3167 161.054 31.7 160.737 32.1C160.437 32.4833 160.054 32.8417 159.587 33.175C159.12 33.4917 158.554 33.75 157.887 33.95C157.237 34.15 156.479 34.25 155.612 34.25ZM170.144 34C169.144 34 168.302 33.825 167.619 33.475C166.936 33.125 166.427 32.6083 166.094 31.925C165.761 31.225 165.594 30.3583 165.594 29.325V23.65H163.619C163.452 23.65 163.311 23.5917 163.194 23.475C163.077 23.3583 163.019 23.2167 163.019 23.05V21.6C163.019 21.4333 163.077 21.2917 163.194 21.175C163.311 21.0583 163.452 21 163.619 21H165.594V16.85C165.594 16.6833 165.644 16.5417 165.744 16.425C165.861 16.3083 166.011 16.25 166.194 16.25H168.219C168.386 16.25 168.527 16.3083 168.644 16.425C168.761 16.5417 168.819 16.6833 168.819 16.85V21H171.944C172.111 21 172.252 21.0583 172.369 21.175C172.486 21.2917 172.544 21.4333 172.544 21.6V23.05C172.544 23.2167 172.486 23.3583 172.369 23.475C172.252 23.5917 172.111 23.65 171.944 23.65H168.819V29.075C168.819 29.7583 168.936 30.2917 169.169 30.675C169.419 31.0583 169.844 31.25 170.444 31.25H172.169C172.336 31.25 172.477 31.3083 172.594 31.425C172.711 31.5417 172.769 31.6833 172.769 31.85V33.4C172.769 33.5667 172.711 33.7083 172.594 33.825C172.477 33.9417 172.336 34 172.169 34H170.144Z" fill="#2740CD"/>
</svg>
